<svg width="21" height="21" viewBox="0 0 21 21" fill="none" xmlns="http://www.w3.org/2000/svg">
<path fill-rule="evenodd" clip-rule="evenodd" d="M21 2.91401L20.9986 2.91537V18.0833C20.9986 19.6926 19.6939 20.9973 18.0844 20.9973H2.9142C1.30473 20.9973 0 19.6926 0 18.0833V2.91401C0 1.30464 1.30473 3.21616e-07 2.9142 3.21616e-07H18.0844C18.8576 -0.00036263 19.5992 0.306487 20.146 0.853009C20.6928 1.39953 21 2.14093 21 2.91401ZM18.629 18.0846V8.75433H16.6971C17.4214 11.3662 16.4259 14.1515 14.21 15.7126C11.994 17.2737 9.03605 17.2737 6.82014 15.7126C4.60424 14.1515 3.60868 11.3662 4.33299 8.75433H2.30399V18.0846C2.30399 18.4075 2.54479 18.6291 2.86768 18.6291H18.027C18.3485 18.6291 18.629 18.4075 18.629 18.0846ZM18.629 5.81023V5.80886V2.89485C18.6334 2.74129 18.5761 2.59235 18.4699 2.4813C18.3638 2.37025 18.2175 2.30634 18.0639 2.30384H15.1497C14.8268 2.30384 14.5477 2.57199 14.5477 2.89485V5.81023C14.5574 6.13364 14.8248 6.38945 15.1483 6.38482H18.0639C18.2158 6.38598 18.3617 6.3255 18.4682 6.2172C18.5746 6.10891 18.6327 5.96206 18.629 5.81023ZM10.5144 6.39303C8.28986 6.43376 6.50784 8.24859 6.50784 10.4733C6.50784 12.6981 8.28986 14.5129 10.5144 14.5536C11.99 14.5806 13.3653 13.8089 14.111 12.5353C14.8568 11.2618 14.8568 9.68486 14.111 8.4113C13.3653 7.13774 11.99 6.36601 10.5144 6.39303Z" fill="white"/>
</svg>
