<svg version="1.1" class="thb-search-icon" xmlns="http://www.w3.org/2000/svg" xmlns:xlink="http://www.w3.org/1999/xlink" x="0px" y="0px" viewBox="0 0 24 24" xml:space="preserve">
<path d="M18.36,16.55l5.27,5.27c0.5,0.5,0.5,1.3,0,1.81c-0.5,0.5-1.32,0.49-1.81,0l-5.27-5.27
	C12.52,21.49,6.7,21.21,3,17.51C-1,13.5-1,7.01,3,3C7.01-1,13.5-1,17.51,3C21.2,6.7,21.49,12.52,18.36,16.55L18.36,16.55z
	 M15.69,15.7c3-3,3-7.87,0-10.88s-7.87-3-10.88,0c-3,3-3,7.87,0,10.88C7.82,18.7,12.69,18.7,15.69,15.7z"/>
</svg>
